<svg xmlns:xlink="http://www.w3.org/1999/xlink" xmlns="http://www.w3.org/2000/svg" version="1.1" viewBox="0 0 240 240" height="240px" width="240px">
    <title>编组 10</title>
    <defs>
        <linearGradient id="linearGradient-1" y2="100%" x2="50%" y1="0%" x1="50%">
            <stop offset="0%" stop-color="#F0F0F0"></stop>
            <stop offset="100%" stop-color="#DDDDDD"></stop>
        </linearGradient>
        <linearGradient id="linearGradient-2" y2="33.399836%" x2="43.3420123%" y1="79.3003286%" x1="59.4943025%">
            <stop offset="0%" stop-color="#F4F4F4"></stop>
            <stop offset="100%" stop-color="#E0DFDF"></stop>
        </linearGradient>
        <ellipse ry="34.2904365" rx="14.9423719" cy="35.8558578" cx="19.0099467" id="path-3"></ellipse>
        <linearGradient id="linearGradient-5" y2="94.0507631%" x2="50%" y1="14.6590487%" x1="33.8602988%">
            <stop offset="0%" stop-color="#E3E3E3"></stop>
            <stop offset="100%" stop-color="#C3C3C3"></stop>
        </linearGradient>
    </defs>
    <g fill-rule="evenodd" fill="none" stroke-width="1" stroke="none" id="页面-1">
        <g transform="translate(-1409.000000, -289.000000)" id="画板">
            <g transform="translate(1409.000000, 289.000000)" id="编组-10">
                <path fill-rule="nonzero" fill="#666666" id="暂无消息" d="M81.08,160.780578 L81.08,159.240578 C82.1,159.140578 83.08,159.040578 84.02,158.960578 L84.02,157.780578 C83.1,157.860578 82.12,157.940578 81.08,158.020578 L81.08,156.440578 L84.2,156.440578 L84.2,155.260578 L81.08,155.260578 L81.08,153.940578 L79.76,153.940578 L79.76,155.260578 L77.44,155.260578 C77.94,154.600578 78.42,153.840578 78.86,153.000578 L84.34,153.000578 L84.34,151.720578 L79.46,151.720578 C79.62,151.360578 79.76,151.000578 79.9,150.640578 L78.46,150.400578 C78.3,150.840578 78.12,151.280578 77.94,151.720578 L75.16,151.720578 L75.16,153.000578 L77.3,153.000578 C76.82,153.900578 76.28,154.660578 75.72,155.300578 L76.04,156.440578 L79.76,156.440578 L79.76,158.100578 C78.4,158.180578 76.94,158.240578 75.42,158.320578 L75.6,159.600578 C77.04,159.520578 78.44,159.420578 79.76,159.340578 L79.76,160.780578 L81.08,160.780578 Z M85.2,160.840578 C86.06,159.600578 86.6,158.140578 86.82,156.460578 L89.42,156.460578 L89.42,160.800578 L90.8,160.800578 L90.8,156.460578 L92.92,156.460578 L92.92,155.200578 L86.92,155.200578 L86.92,153.120578 C89.08,152.880578 90.88,152.420578 92.36,151.780578 L91.44,150.700578 C90.04,151.340578 88.08,151.780578 85.6,152.020578 L85.6,155.160578 C85.56,156.960578 85.08,158.500578 84.2,159.800578 L85.2,160.840578 Z M79.04,168.900578 L79.04,168.120578 L89.2,168.120578 L89.2,168.900578 L90.68,168.900578 L90.68,161.380578 L77.56,161.380578 L77.56,168.900578 L79.04,168.900578 Z M89.2,164.160578 L79.04,164.160578 L79.04,162.600578 L89.2,162.600578 L89.2,164.160578 Z M89.2,166.880578 L79.04,166.880578 L79.04,165.320578 L89.2,165.320578 L89.2,166.880578 Z M96.34,168.840578 C99.12,167.640578 101.12,165.940578 102.36,163.780578 C103.04,162.500578 103.54,161.000578 103.86,159.260578 L105.48,159.260578 L105.48,166.540578 C105.48,167.900578 106.12,168.580578 107.44,168.580578 L110.68,168.580578 C111.52,168.580578 112.12,168.400578 112.5,168.040578 C112.94,167.600578 113.24,166.420578 113.4,164.460578 L112.04,164.020578 C111.94,165.580578 111.76,166.500578 111.48,166.820578 C111.26,167.080578 110.9,167.220578 110.42,167.220578 L107.88,167.220578 C107.24,167.220578 106.92,166.880578 106.92,166.240578 L106.92,159.260578 L113.12,159.260578 L113.12,157.880578 L104.08,157.880578 C104.22,156.800578 104.3,155.620578 104.34,154.380578 L104.34,153.040578 L111.5,153.040578 L111.5,151.640578 L97.14,151.640578 L97.14,153.040578 L102.88,153.040578 L102.88,154.380578 C102.86,155.620578 102.78,156.800578 102.62,157.880578 L95.8,157.880578 L95.8,159.260578 L102.38,159.260578 C102.12,160.520578 101.76,161.660578 101.28,162.660578 C100.2,164.700578 98.3,166.320578 95.54,167.560578 L96.34,168.840578 Z M124.04,168.800578 L124.04,164.520578 L131.26,164.520578 L131.26,166.480578 C131.26,167.100578 130.94,167.420578 130.32,167.420578 L128.08,167.380578 L128.46,168.780578 L130.8,168.780578 C132.04,168.780578 132.68,168.120578 132.68,166.800578 L132.68,156.080578 L128.36,156.080578 L128.36,150.620578 L126.88,150.620578 L126.88,156.080578 L122.6,156.080578 L122.6,168.800578 L124.04,168.800578 Z M120.12,154.880578 L121.14,153.860578 C120.2,152.860578 119.04,151.860578 117.66,150.860578 L116.64,151.840578 C118.12,152.920578 119.28,153.920578 120.12,154.880578 Z M131.2,155.280578 C132.16,154.100578 132.94,152.880578 133.54,151.600578 L132.36,151.040578 C131.8,152.240578 131.02,153.460578 130.06,154.700578 L131.2,155.280578 Z M123.92,155.120578 L125.08,154.560578 C124.38,153.320578 123.66,152.180578 122.9,151.140578 L121.7,151.720578 C122.5,152.720578 123.24,153.860578 123.92,155.120578 Z M119.34,159.580578 L120.36,158.560578 C119.48,157.560578 118.4,156.560578 117.08,155.560578 L116.06,156.540578 C117.46,157.620578 118.54,158.640578 119.34,159.580578 Z M131.26,159.760578 L124.04,159.760578 L124.04,157.460578 L131.26,157.460578 L131.26,159.760578 Z M117.6,168.680578 C118.8,166.420578 119.88,164.000578 120.88,161.440578 L119.62,160.940578 C118.66,163.380578 117.56,165.760578 116.28,168.100578 L117.6,168.680578 Z M131.26,163.280578 L124.04,163.280578 L124.04,161.000578 L131.26,161.000578 L131.26,163.280578 Z M151.78,161.820578 L151.78,152.040578 L145.18,152.040578 C145.42,151.600578 145.62,151.140578 145.78,150.640578 L144.28,150.440578 C144.14,151.000578 143.94,151.520578 143.66,152.040578 L139.26,152.040578 L139.26,161.820578 L151.78,161.820578 Z M150.38,154.940578 L140.66,154.940578 L140.66,153.300578 L150.38,153.300578 L150.38,154.940578 Z M150.38,157.740578 L140.66,157.740578 L140.66,156.100578 L150.38,156.100578 L150.38,157.740578 Z M150.38,160.580578 L140.66,160.580578 L140.66,158.900578 L150.38,158.900578 L150.38,160.580578 Z M146.6,165.860578 L147.7,165.100578 C147.12,164.320578 146.3,163.400578 145.22,162.360578 L144.16,163.020578 C145.2,164.060578 146,165.000578 146.6,165.860578 Z M153.48,167.840578 L154.62,167.040578 C153.94,165.840578 152.96,164.420578 151.68,162.820578 L150.56,163.520578 C151.78,165.100578 152.76,166.540578 153.48,167.840578 Z M147.9,168.600578 C148.66,168.600578 149.24,168.440578 149.6,168.140578 C150,167.760578 150.28,166.740578 150.44,165.060578 L149.06,164.620578 C148.98,165.920578 148.8,166.700578 148.56,166.980578 C148.4,167.180578 148.08,167.300578 147.62,167.300578 L143.18,167.300578 C142.72,167.300578 142.5,167.060578 142.5,166.600578 L142.5,163.080578 L141.04,163.080578 L141.04,166.900578 C141.04,168.020578 141.6,168.600578 142.76,168.600578 L147.9,168.600578 Z M137.62,168.240578 C138.48,166.880578 139.14,165.300578 139.62,163.460578 L138.26,163.180578 C137.88,164.740578 137.26,166.180578 136.4,167.460578 L137.62,168.240578 Z"></path>
                <path fill-rule="nonzero" fill="#999999" id="同学你还没有收到任何消息哦~" d="M36.052,198.088578 L36.052,188.404578 L43.948,188.404578 L43.948,196.684578 C43.948,197.044578 43.792,197.224578 43.492,197.224578 L41.932,197.188578 L42.172,198.052578 L43.768,198.052578 C44.464,198.052578 44.812,197.656578 44.812,196.876578 L44.812,187.564578 L35.188,187.564578 L35.188,198.088578 L36.052,198.088578 Z M43.084,190.588578 L43.084,189.784578 L36.928,189.784578 L36.928,190.588578 L43.084,190.588578 Z M42.412,195.748578 L42.412,191.884578 L37.6,191.884578 L37.6,195.748578 L42.412,195.748578 Z M41.572,194.980578 L38.44,194.980578 L38.44,192.664578 L41.572,192.664578 L41.572,194.980578 Z M52.204,189.340578 L52.972,188.956578 C52.612,188.236578 52.228,187.576578 51.832,186.976578 L51.052,187.360578 C51.46,187.936578 51.844,188.596578 52.204,189.340578 Z M48.064,192.220578 L48.064,190.360578 L56.5,190.360578 L56.5,192.220578 L57.352,192.220578 L57.352,189.532578 L55.036,189.532578 C55.492,188.932578 55.924,188.212578 56.344,187.348578 L55.468,187.024578 C55.084,187.924578 54.628,188.764578 54.1,189.532578 L47.224,189.532578 L47.224,192.220578 L48.064,192.220578 Z M49.42,189.460578 L50.164,189.088578 C49.78,188.404578 49.36,187.780578 48.928,187.204578 L48.148,187.588578 C48.592,188.140578 49.012,188.764578 49.42,189.460578 Z M51.856,198.052578 C52.528,198.052578 52.876,197.728578 52.876,197.080578 L52.876,195.052578 L57.448,195.052578 L57.448,194.236578 L52.876,194.236578 L52.876,193.624578 C53.86,193.144578 54.736,192.652578 55.528,192.148578 L55.528,191.380578 L49.06,191.380578 L49.06,192.148578 L54.292,192.148578 C53.764,192.436578 53.008,192.796578 52,193.240578 L52,194.236578 L47.14,194.236578 L47.14,195.052578 L52,195.052578 L52,196.780578 C52,197.116578 51.844,197.284578 51.556,197.284578 C51.04,197.284578 50.56,197.272578 50.128,197.260578 L50.332,198.052578 L51.856,198.052578 Z M61.432,198.100578 L61.432,190.108578 C61.912,189.268578 62.308,188.368578 62.62,187.420578 L61.816,187.036578 C61.228,188.932578 60.28,190.624578 58.984,192.088578 L59.26,193.000578 C59.728,192.508578 60.16,191.992578 60.568,191.440578 L60.568,198.100578 L61.432,198.100578 Z M62.836,191.944578 C63.34,191.176578 63.784,190.336578 64.168,189.400578 L68.716,189.400578 C68.536,190.024578 68.308,190.576578 68.032,191.080578 L68.86,191.320578 C69.16,190.600578 69.4,189.868578 69.592,189.124578 L69.592,188.560578 L64.48,188.560578 C64.624,188.140578 64.768,187.696578 64.888,187.228578 L64.072,187.060578 C63.664,188.680578 63.004,190.156578 62.092,191.488578 L62.836,191.944578 Z M65.668,198.016578 C66.328,198.016578 66.664,197.680578 66.664,197.008578 L66.664,190.408578 L65.824,190.408578 L65.824,196.792578 C65.824,197.104578 65.668,197.260578 65.368,197.260578 C64.912,197.260578 64.42,197.236578 63.916,197.200578 L64.096,198.016578 L65.668,198.016578 Z M69.136,196.780578 L69.892,196.444578 C69.436,194.812578 68.908,193.288578 68.296,191.872578 L67.528,192.124578 C68.116,193.468578 68.656,195.028578 69.136,196.780578 Z M62.956,196.576578 C63.652,195.316578 64.216,193.852578 64.648,192.184578 L63.868,191.968578 C63.376,193.720578 62.8,195.160578 62.152,196.288578 L62.956,196.576578 Z M73.84,189.760578 L74.464,189.148578 C73.9,188.524578 73.204,187.912578 72.376,187.288578 L71.788,187.852578 C72.664,188.536578 73.348,189.172578 73.84,189.760578 Z M78.748,196.420578 L78.748,189.652578 C78.916,189.304578 79.06,188.944578 79.204,188.584578 L81.928,188.584578 L81.928,187.744578 L75.004,187.744578 L75.004,188.584578 L78.34,188.584578 C77.62,190.384578 76.348,191.920578 74.548,193.192578 L75.088,193.900578 C76.204,193.084578 77.14,192.148578 77.884,191.116578 L77.884,196.420578 L78.748,196.420578 Z M81.604,193.888578 L82.336,193.384578 C81.736,192.412578 80.872,191.284578 79.756,189.988578 L79.096,190.468578 C80.116,191.668578 80.956,192.808578 81.604,193.888578 Z M72.268,198.124578 C72.928,197.020578 73.396,196.468578 73.684,196.468578 C73.828,196.468578 73.984,196.564578 74.14,196.768578 C74.512,197.200578 74.932,197.500578 75.388,197.644578 C75.868,197.776578 76.492,197.848578 77.248,197.860578 C78.004,197.872578 78.7,197.884578 79.348,197.884578 L82.12,197.884578 L82.324,197.020578 C82.012,197.044578 81.556,197.056578 80.968,197.068578 C80.38,197.080578 79.804,197.092578 79.228,197.092578 C78.304,197.092578 77.536,197.080578 76.912,197.068578 C76.216,197.044578 75.676,196.948578 75.316,196.780578 C74.98,196.624578 74.68,196.372578 74.392,196.024578 C74.296,195.916578 74.212,195.832578 74.116,195.760578 L74.116,191.260578 L71.596,191.260578 L71.596,192.052578 L73.312,192.052578 L73.312,195.700578 C72.82,195.916578 72.256,196.528578 71.62,197.536578 L72.268,198.124578 Z M86.14,189.688578 L86.752,189.076578 C86.176,188.476578 85.48,187.876578 84.64,187.276578 L84.028,187.876578 C84.916,188.512578 85.624,189.112578 86.14,189.688578 Z M87.376,191.908578 C88.648,191.212578 89.296,190.228578 89.296,188.944578 L89.296,188.380578 L91.828,188.380578 L91.828,190.372578 C91.828,191.056578 92.188,191.404578 92.908,191.404578 L94.492,191.404578 L94.492,190.588578 L93.124,190.588578 C92.824,190.588578 92.68,190.444578 92.68,190.180578 L92.68,187.564578 L88.432,187.564578 L88.432,189.040578 C88.432,190.000578 87.88,190.732578 86.8,191.248578 L87.376,191.908578 Z M85.672,192.556578 L86.296,191.944578 C85.756,191.344578 85.096,190.756578 84.304,190.156578 L83.692,190.756578 C84.532,191.392578 85.192,191.992578 85.672,192.556578 Z M94.324,198.172578 L94.756,197.392578 C93.436,197.080578 92.308,196.624578 91.396,196.024578 C92.416,195.208578 93.16,194.236578 93.64,193.108578 L93.64,192.316578 L87.304,192.316578 L87.304,193.144578 L88.06,193.144578 C88.444,194.248578 89.092,195.208578 89.992,196.000578 C89.08,196.552578 87.988,196.996578 86.692,197.344578 L87.124,198.136578 C88.504,197.716578 89.692,197.188578 90.688,196.540578 C91.648,197.236578 92.86,197.776578 94.324,198.172578 Z M90.7,195.520578 C89.908,194.860578 89.308,194.068578 88.9,193.144578 L92.68,193.144578 C92.26,194.056578 91.6,194.848578 90.7,195.520578 Z M84.748,197.944578 C85.42,196.624578 86.02,195.220578 86.572,193.732578 L85.792,193.420578 C85.252,194.836578 84.616,196.216578 83.884,197.572578 L84.748,197.944578 Z M99.64,198.076578 L99.64,195.508578 L104.404,195.508578 L104.404,196.876578 C104.404,197.164578 104.248,197.308578 103.936,197.308578 C103.54,197.308578 103.108,197.284578 102.652,197.260578 L102.868,198.052578 L104.212,198.052578 C104.884,198.028578 105.22,197.728578 105.22,197.140578 L105.22,190.660578 L99.652,190.660578 C99.94,190.216578 100.192,189.748578 100.432,189.268578 L106.756,189.268578 L106.756,188.428578 L100.792,188.428578 C100.96,188.008578 101.104,187.576578 101.248,187.132578 L100.372,187.024578 C100.228,187.492578 100.048,187.960578 99.844,188.428578 L96.268,188.428578 L96.268,189.268578 L99.448,189.268578 C98.62,190.816578 97.456,192.184578 95.944,193.384578 L96.508,194.116578 C97.372,193.420578 98.152,192.640578 98.824,191.800578 L98.824,198.076578 L99.64,198.076578 Z M104.404,192.724578 L99.64,192.724578 L99.64,191.416578 L104.404,191.416578 L104.404,192.724578 Z M104.404,194.752578 L99.64,194.752578 L99.64,193.480578 L104.404,193.480578 L104.404,194.752578 Z M118.708,198.148578 L119.296,197.452578 C118.24,196.684578 117.328,195.808578 116.536,194.824578 C117.424,193.432578 117.904,191.740578 117.988,189.772578 L119.02,189.772578 L119.02,188.920578 L115.012,188.920578 C115.156,188.392578 115.288,187.816578 115.408,187.204578 L114.544,187.060578 C114.196,189.172578 113.524,190.864578 112.54,192.112578 L113.08,192.772578 C113.332,192.472578 113.572,192.148578 113.8,191.788578 C114.232,192.892578 114.796,193.912578 115.468,194.872578 C114.724,195.856578 113.716,196.660578 112.456,197.284578 L112.948,198.064578 C114.196,197.392578 115.216,196.564578 116.008,195.568578 C116.764,196.504578 117.664,197.368578 118.708,198.148578 Z M112.3,198.028578 L112.3,187.156578 L111.448,187.156578 L111.448,194.080578 C110.848,194.308578 110.248,194.512578 109.648,194.680578 L109.648,188.128578 L108.808,188.128578 L108.808,194.704578 C108.808,194.824578 108.712,194.920578 108.544,194.992578 L108.808,195.724578 C109.72,195.484578 110.608,195.220578 111.448,194.920578 L111.448,198.028578 L112.3,198.028578 Z M115.984,194.092578 C115.288,193.108578 114.736,192.028578 114.304,190.852578 C114.46,190.516578 114.604,190.156578 114.748,189.772578 L117.16,189.772578 C117.088,191.428578 116.704,192.868578 115.984,194.092578 Z M129.916,197.992578 C130.636,197.992578 131.008,197.620578 131.008,196.888578 L131.008,187.132578 L130.132,187.132578 L130.132,196.672578 C130.132,197.020578 129.952,197.200578 129.616,197.200578 C129.088,197.200578 128.536,197.176578 127.96,197.152578 L128.152,197.992578 L129.916,197.992578 Z M126.34,192.292578 L127.06,191.788578 C126.628,190.984578 126.016,190.036578 125.212,188.956578 L124.552,189.388578 C124.876,189.832578 125.176,190.264578 125.44,190.696578 C124.36,190.888578 123.232,191.032578 122.044,191.152578 C122.548,190.540578 123.088,189.640578 123.664,188.440578 L126.748,188.440578 L126.748,187.624578 L120.784,187.624578 L120.784,188.440578 L122.752,188.440578 C122.068,189.820578 121.48,190.720578 120.988,191.152578 C120.904,191.188578 120.784,191.212578 120.64,191.236578 L120.844,192.016578 C122.644,191.836578 124.312,191.608578 125.824,191.344578 C126.016,191.668578 126.184,191.980578 126.34,192.292578 Z M128.572,195.640578 L128.572,188.212578 L127.732,188.212578 L127.732,195.640578 L128.572,195.640578 Z M120.82,197.932578 C122.956,197.668578 124.948,197.332578 126.796,196.948578 L126.796,196.096578 C125.98,196.276578 125.152,196.444578 124.3,196.588578 L124.3,194.464578 L126.46,194.464578 L126.46,193.624578 L124.3,193.624578 L124.3,192.232578 L123.436,192.232578 L123.436,193.624578 L121.096,193.624578 L121.096,194.464578 L123.436,194.464578 L123.436,196.732578 C122.524,196.876578 121.588,196.996578 120.628,197.104578 L120.82,197.932578 Z M135.148,198.124578 L135.148,190.108578 C135.628,189.292578 136.036,188.416578 136.348,187.492578 L135.544,187.120578 C134.956,188.932578 134.02,190.540578 132.724,191.932578 L133,192.856578 C133.468,192.388578 133.9,191.896578 134.284,191.392578 L134.284,198.124578 L135.148,198.124578 Z M143.152,197.692578 L143.152,196.840578 L140.236,196.840578 L140.236,193.072578 L143.752,193.072578 L143.752,192.232578 L140.236,192.232578 L140.236,188.860578 C141.388,188.728578 142.396,188.512578 143.26,188.224578 L142.84,187.492578 C141.16,187.972578 139.048,188.224578 136.504,188.224578 L136.78,189.040578 C137.692,189.040578 138.556,189.004578 139.372,188.944578 L139.372,192.232578 L135.88,192.232578 L135.88,193.072578 L139.372,193.072578 L139.372,196.840578 L136.48,196.840578 L136.48,197.692578 L143.152,197.692578 Z M147.376,198.124578 L147.376,189.964578 C147.808,189.148578 148.168,188.296578 148.456,187.396578 L147.676,187.024578 C147.124,188.872578 146.236,190.516578 145.024,191.944578 L145.3,192.868578 C145.744,192.388578 146.152,191.872578 146.524,191.344578 L146.524,198.124578 L147.376,198.124578 Z M154,198.064578 C154.744,198.064578 155.128,197.692578 155.128,196.948578 L155.128,188.668578 L156.052,188.668578 L156.052,187.828578 L148.636,187.828578 L148.636,188.668578 L154.252,188.668578 L154.252,196.732578 C154.252,197.092578 154.06,197.272578 153.7,197.272578 C153.1,197.272578 152.452,197.248578 151.78,197.212578 L151.96,198.064578 L154,198.064578 Z M152.824,194.956578 L152.824,190.468578 L148.936,190.468578 L148.936,194.956578 L152.824,194.956578 Z M151.984,194.164578 L149.764,194.164578 L149.764,191.248578 L151.984,191.248578 L151.984,194.164578 Z M162.328,198.040578 L162.328,195.472578 L166.66,195.472578 L166.66,196.648578 C166.66,197.020578 166.468,197.212578 166.096,197.212578 L164.752,197.188578 L164.98,198.028578 L166.384,198.028578 C167.128,198.028578 167.512,197.632578 167.512,196.840578 L167.512,190.408578 L164.92,190.408578 L164.92,187.132578 L164.032,187.132578 L164.032,190.408578 L161.464,190.408578 L161.464,198.040578 L162.328,198.040578 Z M159.976,189.688578 L160.588,189.076578 C160.024,188.476578 159.328,187.876578 158.5,187.276578 L157.888,187.864578 C158.776,188.512578 159.472,189.112578 159.976,189.688578 Z M166.624,189.928578 C167.2,189.220578 167.668,188.488578 168.028,187.720578 L167.32,187.384578 C166.984,188.104578 166.516,188.836578 165.94,189.580578 L166.624,189.928578 Z M162.256,189.832578 L162.952,189.496578 C162.532,188.752578 162.1,188.068578 161.644,187.444578 L160.924,187.792578 C161.404,188.392578 161.848,189.076578 162.256,189.832578 Z M159.508,192.508578 L160.12,191.896578 C159.592,191.296578 158.944,190.696578 158.152,190.096578 L157.54,190.684578 C158.38,191.332578 159.028,191.944578 159.508,192.508578 Z M166.66,192.616578 L162.328,192.616578 L162.328,191.236578 L166.66,191.236578 L166.66,192.616578 Z M158.464,197.968578 C159.184,196.612578 159.832,195.160578 160.432,193.624578 L159.676,193.324578 C159.1,194.788578 158.44,196.216578 157.672,197.620578 L158.464,197.968578 Z M166.66,194.728578 L162.328,194.728578 L162.328,193.360578 L166.66,193.360578 L166.66,194.728578 Z M178.972,193.852578 L178.972,187.984578 L175.012,187.984578 C175.156,187.720578 175.276,187.444578 175.372,187.144578 L174.472,187.024578 C174.388,187.360578 174.268,187.672578 174.1,187.984578 L171.46,187.984578 L171.46,193.852578 L178.972,193.852578 Z M178.132,189.724578 L172.3,189.724578 L172.3,188.740578 L178.132,188.740578 L178.132,189.724578 Z M178.132,191.404578 L172.3,191.404578 L172.3,190.420578 L178.132,190.420578 L178.132,191.404578 Z M178.132,193.108578 L172.3,193.108578 L172.3,192.100578 L178.132,192.100578 L178.132,193.108578 Z M175.864,196.276578 L176.524,195.820578 C176.176,195.352578 175.684,194.800578 175.036,194.176578 L174.4,194.572578 C175.024,195.196578 175.504,195.760578 175.864,196.276578 Z M179.992,197.464578 L180.676,196.984578 C180.268,196.264578 179.68,195.412578 178.912,194.452578 L178.24,194.872578 C178.972,195.820578 179.56,196.684578 179.992,197.464578 Z M176.644,197.920578 C177.1,197.920578 177.448,197.824578 177.664,197.644578 C177.904,197.416578 178.072,196.804578 178.168,195.796578 L177.34,195.532578 C177.292,196.312578 177.184,196.780578 177.04,196.948578 C176.944,197.068578 176.752,197.140578 176.476,197.140578 L173.812,197.140578 C173.536,197.140578 173.404,196.996578 173.404,196.720578 L173.404,194.608578 L172.528,194.608578 L172.528,196.900578 C172.528,197.572578 172.864,197.920578 173.56,197.920578 L176.644,197.920578 Z M170.476,197.704578 C170.992,196.888578 171.388,195.940578 171.676,194.836578 L170.86,194.668578 C170.632,195.604578 170.26,196.468578 169.744,197.236578 L170.476,197.704578 Z M187.012,198.016578 C187.744,198.016578 188.116,197.656578 188.116,196.936578 L188.116,193.996578 C188.476,193.876578 188.824,193.756578 189.172,193.636578 L189.172,192.772578 C188.824,192.904578 188.476,193.024578 188.116,193.144578 L188.116,191.236578 L189.724,191.236578 C189.772,192.340578 189.844,193.312578 189.94,194.128578 C189.988,194.536578 190.06,194.920578 190.132,195.292578 C189.652,195.892578 189.1,196.360578 188.476,196.708578 L188.944,197.416578 C189.46,197.116578 189.94,196.732578 190.372,196.252578 C190.468,196.552578 190.576,196.828578 190.696,197.080578 C191.008,197.692578 191.356,198.004578 191.74,198.004578 C192.232,198.004578 192.652,197.260578 193,195.796578 L192.388,195.280578 C192.172,196.444578 191.956,197.044578 191.74,197.068578 C191.44,197.032578 191.176,196.528578 190.948,195.544578 C191.56,194.680578 192.076,193.612578 192.496,192.328578 L191.824,191.980578 C191.524,192.904578 191.164,193.720578 190.744,194.416578 C190.624,193.576578 190.54,192.508578 190.492,191.236578 L192.556,191.236578 L192.556,190.408578 L190.456,190.408578 C190.42,189.436578 190.408,188.344578 190.408,187.132578 L189.64,187.132578 C189.64,188.320578 189.652,189.412578 189.688,190.408578 L188.116,190.408578 L188.116,188.596578 C188.5,188.356578 188.848,188.068578 189.136,187.744578 L188.512,187.228578 C187.912,187.900578 186.988,188.392578 185.752,188.680578 L186.1,189.424578 C186.52,189.316578 186.916,189.184578 187.288,189.028578 L187.288,190.408578 L185.74,190.408578 L185.74,191.236578 L187.288,191.236578 L187.288,193.384578 C186.748,193.528578 186.196,193.648578 185.644,193.744578 L185.848,194.608578 C186.328,194.500578 186.808,194.380578 187.288,194.248578 L187.288,196.720578 C187.288,197.080578 187.096,197.260578 186.724,197.260578 C186.448,197.260578 186.16,197.236578 185.86,197.200578 L186.04,198.016578 L187.012,198.016578 Z M192.1,189.676578 L192.736,189.184578 C192.268,188.560578 191.776,187.972578 191.248,187.444578 L190.66,187.888578 C191.14,188.392578 191.62,188.980578 192.1,189.676578 Z M183.232,196.948578 L183.232,196.048578 L184.492,196.048578 L184.492,196.696578 L185.32,196.696578 L185.32,188.080578 L182.404,188.080578 L182.404,196.948578 L183.232,196.948578 Z M184.492,195.208578 L183.232,195.208578 L183.232,188.920578 L184.492,188.920578 L184.492,195.208578 Z M197.98,193.492578 C198.496,193.492578 199.012,193.096578 199.528,192.316578 L198.928,191.884578 C198.568,192.436578 198.256,192.724578 197.98,192.724578 C197.752,192.724578 197.38,192.544578 196.864,192.208578 C196.336,191.848578 195.88,191.680578 195.508,191.680578 C194.98,191.680578 194.464,192.064578 193.96,192.856578 L194.56,193.276578 C194.908,192.724578 195.22,192.448578 195.508,192.448578 C195.748,192.448578 196.12,192.616578 196.648,192.964578 C197.164,193.312578 197.608,193.492578 197.98,193.492578 Z"></path>
                <g transform="translate(40.000000, 45.900469)" id="编组-16">
                    <g transform="translate(42.000099, 0.000000)" id="编组-48">
                        <path transform="translate(53.784846, 67.969291) rotate(15.000000) translate(-53.784846, -67.969291)" fill="#D8D8D8" id="矩形备份-25" d="M53.7836273,53.0224442 C57.1819126,53.0227213 59.9366978,55.7775066 59.9369749,59.1757919 L59.9384085,76.7637931 C59.9386855,80.1613621 57.1846361,82.9158605 53.7870671,82.9161374 C53.7867328,82.9161375 53.7863984,82.9161375 53.7860641,82.9161374 C50.3877788,82.9158603 47.6329935,80.161075 47.6327165,76.7627897 L47.6312828,59.1747885 C47.6310059,55.7772195 50.3850552,53.0227211 53.7826242,53.0224442 C53.7829586,53.0224441 53.7832929,53.0224441 53.7836273,53.0224442 Z"></path>
                        <path transform="translate(68.401805, 46.132634) rotate(-80.000000) translate(-68.401805, -46.132634)" fill="#C3C3C3" id="矩形备份-26" d="M53.4550512,41.2996719 L83.3490426,41.2978462 C83.3487486,46.1091557 79.7097252,50.1407991 74.9235872,50.6323097 C72.7495367,50.8555843 70.5754931,50.967288 68.4014562,50.9674208 C66.2274796,50.9675535 64.0535098,50.8561215 61.8795468,50.6331249 C57.0936716,50.1421834 53.4547573,46.1106619 53.4550512,41.2996719 L53.4550512,41.2996719 L53.4550512,41.2996719 Z"></path>
                        <path transform="translate(63.729128, 45.602667) rotate(-79.000000) translate(-63.729128, -45.602667)" fill="#E7E7E7" id="矩形备份-27" d="M46.5843301,39.8909373 L80.8744967,39.8888431 C80.8741478,45.5993695 76.5498374,50.3820421 70.8682081,50.9558017 C68.4883699,51.1961155 66.1085389,51.316345 63.7287154,51.3164904 C61.3490017,51.3166357 58.9692954,51.1967079 56.5895965,50.956707 C50.9082121,50.383717 46.5839813,45.6011427 46.5843301,39.8909373 L46.5843301,39.8909373 L46.5843301,39.8909373 Z"></path>
                        <path transform="translate(42.690294, 39.539137) rotate(-79.000000) translate(-42.690294, -39.539137)" fill="url(#linearGradient-1)" id="矩形备份-28" d="M12.096427,22.2101902 L73.2841613,18.5902591 C64.7164158,30.7949227 60.0907267,37.9225099 59.4070941,39.9730207 C57.2838037,46.3416904 56.7807509,51.5622101 57.8979357,55.6345801 C51.9011619,58.8698589 46.0871913,60.4876702 40.456024,60.4880142 C34.8248566,60.488358 29.2087717,58.8712447 23.6077692,55.6366743 C24.3740418,50.979445 24.0145379,46.1261381 22.5292575,41.0767537 C21.0439771,36.0273692 17.566367,29.7385147 12.096427,22.2101902 Z"></path>
                        <g id="编组-47备份">
                            <mask fill="white" id="mask-4">
                                <use xlink:href="#path-3"></use>
                            </mask>
                            <use xlink:href="#path-3" transform="translate(19.009947, 35.855858) rotate(-353.000000) translate(-19.009947, -35.855858)" fill="url(#linearGradient-2)" id="椭圆形"></use>
                            <ellipse ry="14.5074346" rx="10.5475898" cy="41.272142" cx="35.3577172" transform="translate(35.357717, 41.272142) rotate(9.000000) translate(-35.357717, -41.272142)" mask="url(#mask-4)" fill="url(#linearGradient-5)" id="椭圆形"></ellipse>
                        </g>
                    </g>
                    <circle r="3" cy="38.0001096" cx="3" fill="#D8D8D8" id="椭圆形"></circle>
                    <circle r="3" cy="38.0001096" cx="17" fill="#D8D8D8" id="椭圆形备份-18"></circle>
                    <circle r="3" cy="38.0001096" cx="31" fill="#D8D8D8" id="椭圆形备份-19"></circle>
                </g>
            </g>
        </g>
    </g>
</svg>